<svg width="1440" height="371" viewBox="0 0 1440 371" fill="none" xmlns="http://www.w3.org/2000/svg">
<g opacity="0.6">
<mask id="mask0_1959_42383" style="mask-type:alpha" maskUnits="userSpaceOnUse" x="-424" y="-61" width="2870" height="432">
<g clip-path="url(#clip0_1959_42383)">
<path d="M-424 -61H2446L2444.44 -60.1572L1643.78 371H378.226L377.764 370.753L-424 -61ZM2440.27 -59.9104H-418.268L379.91 369.91H1642.1L2440.27 -59.9104Z" fill="url(#paint0_linear_1959_42383)"/>
<path d="M-279.258 -60.1812L-276.579 -60.729L443.6 370.175L440.921 370.729L-279.258 -60.1812Z" fill="url(#paint1_linear_1959_42383)"/>
<path d="M-136.084 -60.2054L-133.333 -60.7051L506.828 370.199L504.072 370.705L-136.084 -60.2054Z" fill="url(#paint2_linear_1959_42383)"/>
<path d="M7.08984 -60.2294L9.91736 -60.6809L570.056 370.224L567.228 370.681L7.08984 -60.2294Z" fill="url(#paint3_linear_1959_42383)"/>
<path d="M150.27 -60.2596L153.163 -60.6509L633.284 370.253L630.391 370.651L150.27 -60.2596Z" fill="url(#paint4_linear_1959_42383)"/>
<path d="M293.455 -60.2836L296.409 -60.6267L696.507 370.284L693.553 370.621L293.455 -60.2836Z" fill="url(#paint5_linear_1959_42383)"/>
<path d="M436.641 -60.3197L439.644 -60.5906L759.725 370.314L756.721 370.591L436.641 -60.3197Z" fill="url(#paint6_linear_1959_42383)"/>
<path d="M579.838 -60.3499L582.88 -60.5605L822.943 370.35L819.896 370.555L579.838 -60.3499Z" fill="url(#paint7_linear_1959_42383)"/>
<path d="M723.033 -60.386L726.114 -60.5244L886.149 370.38L883.074 370.524L723.033 -60.386Z" fill="url(#paint8_linear_1959_42383)"/>
<path d="M866.234 -60.4221L869.332 -60.4883L949.354 370.416L946.257 370.488L866.234 -60.4221Z" fill="url(#paint9_linear_1959_42383)"/>
<path d="M1012.55 -60.4583H1009.44V370.452H1012.55V-60.4583Z" fill="url(#paint10_linear_1959_42383)"/>
<path d="M1072.64 370.416L1152.66 -60.4883L1155.76 -60.4221L1075.74 370.488L1072.64 370.416Z" fill="url(#paint11_linear_1959_42383)"/>
<path d="M1135.84 370.38L1295.88 -60.5244L1298.96 -60.386L1138.92 370.524L1135.84 370.38Z" fill="url(#paint12_linear_1959_42383)"/>
<path d="M1199.06 370.35L1439.11 -60.5605L1442.16 -60.3499L1202.1 370.555L1199.06 370.35Z" fill="url(#paint13_linear_1959_42383)"/>
<path d="M1262.27 370.314L1582.35 -60.5906L1585.35 -60.3197L1265.27 370.591L1262.27 370.314Z" fill="url(#paint14_linear_1959_42383)"/>
<path d="M1325.49 370.284L1725.59 -60.6267L1728.54 -60.2836L1328.44 370.621L1325.49 370.284Z" fill="url(#paint15_linear_1959_42383)"/>
<path d="M1388.71 370.253L1868.83 -60.6509L1871.72 -60.2596L1391.6 370.651L1388.71 370.253Z" fill="url(#paint16_linear_1959_42383)"/>
<path d="M1662.08 359.599H359.918V360.688H1662.08V359.599Z" fill="url(#paint17_linear_1959_42383)"/>
<path d="M1682.42 348.643H339.576V349.733H1682.42V348.643Z" fill="url(#paint18_linear_1959_42383)"/>
<path d="M1704.07 336.983H317.918V338.072H1704.07V336.983Z" fill="url(#paint19_linear_1959_42383)"/>
<path d="M1727.17 324.54H294.82V325.63H1727.17V324.54Z" fill="url(#paint20_linear_1959_42383)"/>
<path d="M1751.87 311.243H270.125V312.332H1751.87V311.243Z" fill="url(#paint21_linear_1959_42383)"/>
<path d="M1778.32 297H243.672V298.09H1778.32V297Z" fill="url(#paint22_linear_1959_42383)"/>
<path d="M1806.74 281.698H215.258V282.788H1806.74V281.698Z" fill="url(#paint23_linear_1959_42383)"/>
<path d="M1837.34 265.223H184.656V266.312H1837.34V265.223Z" fill="url(#paint24_linear_1959_42383)"/>
<path d="M1870.39 247.423H151.613V248.512H1870.39V247.423Z" fill="url(#paint25_linear_1959_42383)"/>
<path d="M1906.19 228.148H115.812V229.237H1906.19V228.148Z" fill="url(#paint26_linear_1959_42383)"/>
<path d="M1945.1 207.187H76.8984V208.277H1945.1V207.187Z" fill="url(#paint27_linear_1959_42383)"/>
<path d="M1987.55 184.331H34.4473V185.42H1987.55V184.331Z" fill="url(#paint28_linear_1959_42383)"/>
<path d="M2034.04 159.295H-12.0469V160.385H2034.04V159.295Z" fill="url(#paint29_linear_1959_42383)"/>
<path d="M2085.18 131.755H-63.1855V132.845H2085.18V131.755Z" fill="url(#paint30_linear_1959_42383)"/>
<path d="M2141.7 101.32H-119.707V102.409H2141.7V101.32Z" fill="url(#paint31_linear_1959_42383)"/>
<path d="M2204.5 67.5013H-182.508V68.5909H2204.5V67.5013Z" fill="url(#paint32_linear_1959_42383)"/>
<path d="M2274.69 29.7041H-252.693V30.7937H2274.69V29.7041Z" fill="url(#paint33_linear_1959_42383)"/>
</g>
</mask>
<g mask="url(#mask0_1959_42383)">
<g filter="url(#filter0_f_1959_42383)">
<rect x="34" y="92.9324" width="1382" height="131.101" fill="#A9ABD2" fill-opacity="0.2"/>
</g>
</g>
</g>
<defs>
<filter id="filter0_f_1959_42383" x="-66" y="-7.06763" width="1582" height="331.101" filterUnits="userSpaceOnUse" color-interpolation-filters="sRGB">
<feFlood flood-opacity="0" result="BackgroundImageFix"/>
<feBlend mode="normal" in="SourceGraphic" in2="BackgroundImageFix" result="shape"/>
<feGaussianBlur stdDeviation="50" result="effect1_foregroundBlur_1959_42383"/>
</filter>
<linearGradient id="paint0_linear_1959_42383" x1="1011" y1="338.125" x2="1011" y2="-38.7996" gradientUnits="userSpaceOnUse">
<stop stop-color="white"/>
<stop offset="1" stop-color="#999999"/>
</linearGradient>
<linearGradient id="paint1_linear_1959_42383" x1="82.1712" y1="337.895" x2="82.1712" y2="-38.5565" gradientUnits="userSpaceOnUse">
<stop stop-color="white"/>
<stop offset="1" stop-color="#999999"/>
</linearGradient>
<linearGradient id="paint2_linear_1959_42383" x1="185.372" y1="337.874" x2="185.372" y2="-38.535" gradientUnits="userSpaceOnUse">
<stop stop-color="white"/>
<stop offset="1" stop-color="#999999"/>
</linearGradient>
<linearGradient id="paint3_linear_1959_42383" x1="288.573" y1="337.854" x2="288.573" y2="-38.5133" gradientUnits="userSpaceOnUse">
<stop stop-color="white"/>
<stop offset="1" stop-color="#999999"/>
</linearGradient>
<linearGradient id="paint4_linear_1959_42383" x1="391.777" y1="337.829" x2="391.777" y2="-38.4864" gradientUnits="userSpaceOnUse">
<stop stop-color="white"/>
<stop offset="1" stop-color="#999999"/>
</linearGradient>
<linearGradient id="paint5_linear_1959_42383" x1="494.981" y1="337.803" x2="494.981" y2="-38.465" gradientUnits="userSpaceOnUse">
<stop stop-color="white"/>
<stop offset="1" stop-color="#999999"/>
</linearGradient>
<linearGradient id="paint6_linear_1959_42383" x1="598.183" y1="337.778" x2="598.183" y2="-38.4323" gradientUnits="userSpaceOnUse">
<stop stop-color="white"/>
<stop offset="1" stop-color="#999999"/>
</linearGradient>
<linearGradient id="paint7_linear_1959_42383" x1="701.391" y1="337.746" x2="701.391" y2="-38.4056" gradientUnits="userSpaceOnUse">
<stop stop-color="white"/>
<stop offset="1" stop-color="#999999"/>
</linearGradient>
<linearGradient id="paint8_linear_1959_42383" x1="804.591" y1="337.721" x2="804.591" y2="-38.3729" gradientUnits="userSpaceOnUse">
<stop stop-color="white"/>
<stop offset="1" stop-color="#999999"/>
</linearGradient>
<linearGradient id="paint9_linear_1959_42383" x1="907.794" y1="337.691" x2="907.794" y2="-38.3405" gradientUnits="userSpaceOnUse">
<stop stop-color="white"/>
<stop offset="1" stop-color="#999999"/>
</linearGradient>
<linearGradient id="paint10_linear_1959_42383" x1="1011" y1="337.66" x2="1011" y2="-38.3139" gradientUnits="userSpaceOnUse">
<stop stop-color="white"/>
<stop offset="1" stop-color="#999999"/>
</linearGradient>
<linearGradient id="paint11_linear_1959_42383" x1="1114.2" y1="337.691" x2="1114.2" y2="-38.3405" gradientUnits="userSpaceOnUse">
<stop stop-color="white"/>
<stop offset="1" stop-color="#999999"/>
</linearGradient>
<linearGradient id="paint12_linear_1959_42383" x1="1217.4" y1="337.721" x2="1217.4" y2="-38.3729" gradientUnits="userSpaceOnUse">
<stop stop-color="white"/>
<stop offset="1" stop-color="#999999"/>
</linearGradient>
<linearGradient id="paint13_linear_1959_42383" x1="1320.61" y1="337.746" x2="1320.61" y2="-38.4056" gradientUnits="userSpaceOnUse">
<stop stop-color="white"/>
<stop offset="1" stop-color="#999999"/>
</linearGradient>
<linearGradient id="paint14_linear_1959_42383" x1="1423.81" y1="337.778" x2="1423.81" y2="-38.4323" gradientUnits="userSpaceOnUse">
<stop stop-color="white"/>
<stop offset="1" stop-color="#999999"/>
</linearGradient>
<linearGradient id="paint15_linear_1959_42383" x1="1527.01" y1="337.803" x2="1527.01" y2="-38.465" gradientUnits="userSpaceOnUse">
<stop stop-color="white"/>
<stop offset="1" stop-color="#999999"/>
</linearGradient>
<linearGradient id="paint16_linear_1959_42383" x1="1630.22" y1="337.829" x2="1630.22" y2="-38.4864" gradientUnits="userSpaceOnUse">
<stop stop-color="white"/>
<stop offset="1" stop-color="#999999"/>
</linearGradient>
<linearGradient id="paint17_linear_1959_42383" x1="1011" y1="360.605" x2="1011" y2="359.655" gradientUnits="userSpaceOnUse">
<stop stop-color="white"/>
<stop offset="1" stop-color="#999999"/>
</linearGradient>
<linearGradient id="paint18_linear_1959_42383" x1="1011" y1="349.65" x2="1011" y2="348.699" gradientUnits="userSpaceOnUse">
<stop stop-color="white"/>
<stop offset="1" stop-color="#999999"/>
</linearGradient>
<linearGradient id="paint19_linear_1959_42383" x1="1011" y1="337.99" x2="1011" y2="337.039" gradientUnits="userSpaceOnUse">
<stop stop-color="white"/>
<stop offset="1" stop-color="#999999"/>
</linearGradient>
<linearGradient id="paint20_linear_1959_42383" x1="1011" y1="325.547" x2="1011" y2="324.596" gradientUnits="userSpaceOnUse">
<stop stop-color="white"/>
<stop offset="1" stop-color="#999999"/>
</linearGradient>
<linearGradient id="paint21_linear_1959_42383" x1="1011" y1="312.25" x2="1011" y2="311.299" gradientUnits="userSpaceOnUse">
<stop stop-color="white"/>
<stop offset="1" stop-color="#999999"/>
</linearGradient>
<linearGradient id="paint22_linear_1959_42383" x1="1011" y1="298.007" x2="1011" y2="297.056" gradientUnits="userSpaceOnUse">
<stop stop-color="white"/>
<stop offset="1" stop-color="#999999"/>
</linearGradient>
<linearGradient id="paint23_linear_1959_42383" x1="1011" y1="282.705" x2="1011" y2="281.754" gradientUnits="userSpaceOnUse">
<stop stop-color="white"/>
<stop offset="1" stop-color="#999999"/>
</linearGradient>
<linearGradient id="paint24_linear_1959_42383" x1="1011" y1="266.229" x2="1011" y2="265.279" gradientUnits="userSpaceOnUse">
<stop stop-color="white"/>
<stop offset="1" stop-color="#999999"/>
</linearGradient>
<linearGradient id="paint25_linear_1959_42383" x1="1011" y1="248.429" x2="1011" y2="247.479" gradientUnits="userSpaceOnUse">
<stop stop-color="white"/>
<stop offset="1" stop-color="#999999"/>
</linearGradient>
<linearGradient id="paint26_linear_1959_42383" x1="1011" y1="229.154" x2="1011" y2="228.204" gradientUnits="userSpaceOnUse">
<stop stop-color="white"/>
<stop offset="1" stop-color="#999999"/>
</linearGradient>
<linearGradient id="paint27_linear_1959_42383" x1="1011" y1="208.194" x2="1011" y2="207.243" gradientUnits="userSpaceOnUse">
<stop stop-color="white"/>
<stop offset="1" stop-color="#999999"/>
</linearGradient>
<linearGradient id="paint28_linear_1959_42383" x1="1011" y1="185.337" x2="1011" y2="184.387" gradientUnits="userSpaceOnUse">
<stop stop-color="white"/>
<stop offset="1" stop-color="#999999"/>
</linearGradient>
<linearGradient id="paint29_linear_1959_42383" x1="1011" y1="160.302" x2="1011" y2="159.351" gradientUnits="userSpaceOnUse">
<stop stop-color="white"/>
<stop offset="1" stop-color="#999999"/>
</linearGradient>
<linearGradient id="paint30_linear_1959_42383" x1="1011" y1="132.762" x2="1011" y2="131.811" gradientUnits="userSpaceOnUse">
<stop stop-color="white"/>
<stop offset="1" stop-color="#999999"/>
</linearGradient>
<linearGradient id="paint31_linear_1959_42383" x1="1011" y1="102.326" x2="1011" y2="101.376" gradientUnits="userSpaceOnUse">
<stop stop-color="white"/>
<stop offset="1" stop-color="#999999"/>
</linearGradient>
<linearGradient id="paint32_linear_1959_42383" x1="1011" y1="68.508" x2="1011" y2="67.5573" gradientUnits="userSpaceOnUse">
<stop stop-color="white"/>
<stop offset="1" stop-color="#999999"/>
</linearGradient>
<linearGradient id="paint33_linear_1959_42383" x1="1011" y1="30.7107" x2="1011" y2="29.7601" gradientUnits="userSpaceOnUse">
<stop stop-color="white"/>
<stop offset="1" stop-color="#999999"/>
</linearGradient>
<clipPath id="clip0_1959_42383">
<rect width="2870" height="432" fill="white" transform="translate(-424 -61)"/>
</clipPath>
</defs>
</svg>
