<svg width="1440" height="286" viewBox="0 0 1440 286" fill="none" xmlns="http://www.w3.org/2000/svg">
<g opacity="0.6">
<mask id="mask0_1959_42336" style="mask-type:alpha" maskUnits="userSpaceOnUse" x="-343" y="0" width="2308" height="286">
<g clip-path="url(#clip0_1959_42336)">
<path d="M1965 286H-343L-341.743 285.442L302.131 0H1319.86L1320.24 0.163422L1965 286ZM-338.39 285.279H1960.39L1318.51 0.721313H303.485L-338.39 285.279Z" fill="url(#paint0_linear_1959_42336)"/>
<path d="M1848.6 285.458L1846.45 285.821L1267.29 0.545898L1269.45 0.17926L1848.6 285.458Z" fill="url(#paint1_linear_1959_42336)"/>
<path d="M1733.46 285.474L1731.25 285.805L1216.45 0.529999L1218.66 0.195251L1733.46 285.474Z" fill="url(#paint2_linear_1959_42336)"/>
<path d="M1618.32 285.49L1616.05 285.789L1165.6 0.514038L1167.87 0.211151L1618.32 285.49Z" fill="url(#paint3_linear_1959_42336)"/>
<path d="M1503.18 285.51L1500.86 285.769L1114.75 0.494263L1117.08 0.231232L1503.18 285.51Z" fill="url(#paint4_linear_1959_42336)"/>
<path d="M1388.04 285.526L1385.66 285.753L1063.91 0.474121L1066.28 0.250946L1388.04 285.526Z" fill="url(#paint5_linear_1959_42336)"/>
<path d="M1272.89 285.55L1270.47 285.729L1013.07 0.454285L1015.49 0.270996L1272.89 285.55Z" fill="url(#paint6_linear_1959_42336)"/>
<path d="M1157.73 285.57L1155.29 285.709L962.232 0.43042L964.682 0.294952L1157.73 285.57Z" fill="url(#paint7_linear_1959_42336)"/>
<path d="M1042.58 285.594L1040.1 285.685L911.404 0.410522L913.877 0.31488L1042.58 285.594Z" fill="url(#paint8_linear_1959_42336)"/>
<path d="M927.418 285.617L924.927 285.661L860.574 0.386566L863.065 0.338745L927.418 285.617Z" fill="url(#paint9_linear_1959_42336)"/>
<path d="M809.753 285.641H812.252V0.362701H809.753V285.641Z" fill="url(#paint10_linear_1959_42336)"/>
<path d="M761.428 0.386566L697.079 285.661L694.589 285.617L758.937 0.338745L761.428 0.386566Z" fill="url(#paint11_linear_1959_42336)"/>
<path d="M710.602 0.410522L581.9 285.685L579.423 285.594L708.124 0.31488L710.602 0.410522Z" fill="url(#paint12_linear_1959_42336)"/>
<path d="M659.768 0.43042L466.718 285.709L464.267 285.57L657.317 0.294952L659.768 0.43042Z" fill="url(#paint13_linear_1959_42336)"/>
<path d="M608.934 0.454285L351.531 285.729L349.115 285.55L606.518 0.270996L608.934 0.454285Z" fill="url(#paint14_linear_1959_42336)"/>
<path d="M558.092 0.474243L236.34 285.753L233.969 285.526L555.721 0.251068L558.092 0.474243Z" fill="url(#paint15_linear_1959_42336)"/>
<path d="M507.25 0.494141L121.15 285.769L118.823 285.51L504.928 0.23111L507.25 0.494141Z" fill="url(#paint16_linear_1959_42336)"/>
<path d="M456.406 0.514038L5.94888 285.789L3.67953 285.49L454.132 0.211151L456.406 0.514038Z" fill="url(#paint17_linear_1959_42336)"/>
<path d="M405.555 0.529999L-109.247 285.805L-111.463 285.474L403.343 0.195251L405.555 0.529999Z" fill="url(#paint18_linear_1959_42336)"/>
<path d="M354.709 0.546021L-224.445 285.821L-226.6 285.458L352.555 0.179382L354.709 0.546021Z" fill="url(#paint19_linear_1959_42336)"/>
<path d="M287.412 7.54797H1334.59V6.82665H287.412V7.54797Z" fill="url(#paint20_linear_1959_42336)"/>
<path d="M271.055 14.8011H1350.95V14.0798H271.055V14.8011Z" fill="url(#paint21_linear_1959_42336)"/>
<path d="M253.642 22.5205H1368.36V21.7992H253.642V22.5205Z" fill="url(#paint22_linear_1959_42336)"/>
<path d="M235.065 30.7581H1386.94V30.0367H235.065V30.7581Z" fill="url(#paint23_linear_1959_42336)"/>
<path d="M215.208 39.5614H1406.8V38.8401H215.208V39.5614Z" fill="url(#paint24_linear_1959_42336)"/>
<path d="M193.933 48.9905H1428.07V48.2691H193.933V48.9905Z" fill="url(#paint25_linear_1959_42336)"/>
<path d="M171.081 59.1208H1450.92V58.3995H171.081V59.1208Z" fill="url(#paint26_linear_1959_42336)"/>
<path d="M146.476 70.0286H1475.53V69.3072H146.476V70.0286Z" fill="url(#paint27_linear_1959_42336)"/>
<path d="M119.898 81.8127H1502.1V81.0914H119.898V81.8127Z" fill="url(#paint28_linear_1959_42336)"/>
<path d="M91.1086 94.5735H1530.89V93.8522H91.1086V94.5735Z" fill="url(#paint29_linear_1959_42336)"/>
<path d="M59.8136 108.45H1562.19V107.729H59.8136V108.45Z" fill="url(#paint30_linear_1959_42336)"/>
<path d="M25.6799 123.582H1596.33V122.861H25.6799V123.582Z" fill="url(#paint31_linear_1959_42336)"/>
<path d="M-11.7111 140.157H1633.71V139.435H-11.7111V140.157Z" fill="url(#paint32_linear_1959_42336)"/>
<path d="M-52.8381 158.389H1674.84V157.668H-52.8381V158.389Z" fill="url(#paint33_linear_1959_42336)"/>
<path d="M-98.2892 178.538H1720.29V177.817H-98.2892V178.538Z" fill="url(#paint34_linear_1959_42336)"/>
<path d="M-148.796 200.927H1770.79V200.206H-148.796V200.927Z" fill="url(#paint35_linear_1959_42336)"/>
<path d="M-205.239 225.951H1827.24V225.229H-205.239V225.951Z" fill="url(#paint36_linear_1959_42336)"/>
<path d="M-268.732 254.098H1890.73V253.377H-268.732V254.098Z" fill="url(#paint37_linear_1959_42336)"/>
</g>
</mask>
<g mask="url(#mask0_1959_42336)">
<g filter="url(#filter0_f_1959_42336)">
<rect x="1351" y="194.301" width="1277" height="194.301" transform="rotate(180 1351 194.301)" fill="#A9ABD2" fill-opacity="0.2"/>
</g>
</g>
</g>
<defs>
<filter id="filter0_f_1959_42336" x="-26" y="-100" width="1477" height="394.301" filterUnits="userSpaceOnUse" color-interpolation-filters="sRGB">
<feFlood flood-opacity="0" result="BackgroundImageFix"/>
<feBlend mode="normal" in="SourceGraphic" in2="BackgroundImageFix" result="shape"/>
<feGaussianBlur stdDeviation="50" result="effect1_foregroundBlur_1959_42336"/>
</filter>
<linearGradient id="paint0_linear_1959_42336" x1="811" y1="21.7647" x2="811" y2="271.303" gradientUnits="userSpaceOnUse">
<stop stop-color="white"/>
<stop offset="1" stop-color="#999999"/>
</linearGradient>
<linearGradient id="paint1_linear_1959_42336" x1="1557.95" y1="21.9167" x2="1557.95" y2="271.142" gradientUnits="userSpaceOnUse">
<stop stop-color="white"/>
<stop offset="1" stop-color="#999999"/>
</linearGradient>
<linearGradient id="paint2_linear_1959_42336" x1="1474.95" y1="21.9303" x2="1474.95" y2="271.127" gradientUnits="userSpaceOnUse">
<stop stop-color="white"/>
<stop offset="1" stop-color="#999999"/>
</linearGradient>
<linearGradient id="paint3_linear_1959_42336" x1="1391.96" y1="21.9437" x2="1391.96" y2="271.113" gradientUnits="userSpaceOnUse">
<stop stop-color="white"/>
<stop offset="1" stop-color="#999999"/>
</linearGradient>
<linearGradient id="paint4_linear_1959_42336" x1="1308.97" y1="21.9608" x2="1308.97" y2="271.095" gradientUnits="userSpaceOnUse">
<stop stop-color="white"/>
<stop offset="1" stop-color="#999999"/>
</linearGradient>
<linearGradient id="paint5_linear_1959_42336" x1="1225.97" y1="21.9778" x2="1225.97" y2="271.081" gradientUnits="userSpaceOnUse">
<stop stop-color="white"/>
<stop offset="1" stop-color="#999999"/>
</linearGradient>
<linearGradient id="paint6_linear_1959_42336" x1="1142.98" y1="21.9945" x2="1142.98" y2="271.059" gradientUnits="userSpaceOnUse">
<stop stop-color="white"/>
<stop offset="1" stop-color="#999999"/>
</linearGradient>
<linearGradient id="paint7_linear_1959_42336" x1="1059.98" y1="22.0151" x2="1059.98" y2="271.042" gradientUnits="userSpaceOnUse">
<stop stop-color="white"/>
<stop offset="1" stop-color="#999999"/>
</linearGradient>
<linearGradient id="paint8_linear_1959_42336" x1="976.991" y1="22.0317" x2="976.991" y2="271.02" gradientUnits="userSpaceOnUse">
<stop stop-color="white"/>
<stop offset="1" stop-color="#999999"/>
</linearGradient>
<linearGradient id="paint9_linear_1959_42336" x1="893.996" y1="22.0519" x2="893.996" y2="270.999" gradientUnits="userSpaceOnUse">
<stop stop-color="white"/>
<stop offset="1" stop-color="#999999"/>
</linearGradient>
<linearGradient id="paint10_linear_1959_42336" x1="811.002" y1="22.0725" x2="811.002" y2="270.981" gradientUnits="userSpaceOnUse">
<stop stop-color="white"/>
<stop offset="1" stop-color="#999999"/>
</linearGradient>
<linearGradient id="paint11_linear_1959_42336" x1="728.008" y1="22.0519" x2="728.008" y2="270.999" gradientUnits="userSpaceOnUse">
<stop stop-color="white"/>
<stop offset="1" stop-color="#999999"/>
</linearGradient>
<linearGradient id="paint12_linear_1959_42336" x1="645.012" y1="22.0317" x2="645.012" y2="271.02" gradientUnits="userSpaceOnUse">
<stop stop-color="white"/>
<stop offset="1" stop-color="#999999"/>
</linearGradient>
<linearGradient id="paint13_linear_1959_42336" x1="562.017" y1="22.0151" x2="562.017" y2="271.042" gradientUnits="userSpaceOnUse">
<stop stop-color="white"/>
<stop offset="1" stop-color="#999999"/>
</linearGradient>
<linearGradient id="paint14_linear_1959_42336" x1="479.024" y1="21.9945" x2="479.024" y2="271.059" gradientUnits="userSpaceOnUse">
<stop stop-color="white"/>
<stop offset="1" stop-color="#999999"/>
</linearGradient>
<linearGradient id="paint15_linear_1959_42336" x1="396.031" y1="21.9779" x2="396.031" y2="271.081" gradientUnits="userSpaceOnUse">
<stop stop-color="white"/>
<stop offset="1" stop-color="#999999"/>
</linearGradient>
<linearGradient id="paint16_linear_1959_42336" x1="313.037" y1="21.9607" x2="313.037" y2="271.095" gradientUnits="userSpaceOnUse">
<stop stop-color="white"/>
<stop offset="1" stop-color="#999999"/>
</linearGradient>
<linearGradient id="paint17_linear_1959_42336" x1="230.043" y1="21.9437" x2="230.043" y2="271.113" gradientUnits="userSpaceOnUse">
<stop stop-color="white"/>
<stop offset="1" stop-color="#999999"/>
</linearGradient>
<linearGradient id="paint18_linear_1959_42336" x1="147.046" y1="21.9303" x2="147.046" y2="271.127" gradientUnits="userSpaceOnUse">
<stop stop-color="white"/>
<stop offset="1" stop-color="#999999"/>
</linearGradient>
<linearGradient id="paint19_linear_1959_42336" x1="64.0546" y1="21.9168" x2="64.0546" y2="271.142" gradientUnits="userSpaceOnUse">
<stop stop-color="white"/>
<stop offset="1" stop-color="#999999"/>
</linearGradient>
<linearGradient id="paint20_linear_1959_42336" x1="810.999" y1="6.88154" x2="810.999" y2="7.5109" gradientUnits="userSpaceOnUse">
<stop stop-color="white"/>
<stop offset="1" stop-color="#999999"/>
</linearGradient>
<linearGradient id="paint21_linear_1959_42336" x1="811.001" y1="14.1347" x2="811.001" y2="14.7641" gradientUnits="userSpaceOnUse">
<stop stop-color="white"/>
<stop offset="1" stop-color="#999999"/>
</linearGradient>
<linearGradient id="paint22_linear_1959_42336" x1="811.003" y1="21.8541" x2="811.003" y2="22.4834" gradientUnits="userSpaceOnUse">
<stop stop-color="white"/>
<stop offset="1" stop-color="#999999"/>
</linearGradient>
<linearGradient id="paint23_linear_1959_42336" x1="811.001" y1="30.0916" x2="811.001" y2="30.721" gradientUnits="userSpaceOnUse">
<stop stop-color="white"/>
<stop offset="1" stop-color="#999999"/>
</linearGradient>
<linearGradient id="paint24_linear_1959_42336" x1="811.002" y1="38.895" x2="811.002" y2="39.5243" gradientUnits="userSpaceOnUse">
<stop stop-color="white"/>
<stop offset="1" stop-color="#999999"/>
</linearGradient>
<linearGradient id="paint25_linear_1959_42336" x1="811.002" y1="48.324" x2="811.002" y2="48.9534" gradientUnits="userSpaceOnUse">
<stop stop-color="white"/>
<stop offset="1" stop-color="#999999"/>
</linearGradient>
<linearGradient id="paint26_linear_1959_42336" x1="811" y1="58.4544" x2="811" y2="59.0838" gradientUnits="userSpaceOnUse">
<stop stop-color="white"/>
<stop offset="1" stop-color="#999999"/>
</linearGradient>
<linearGradient id="paint27_linear_1959_42336" x1="811.002" y1="69.3621" x2="811.002" y2="69.9915" gradientUnits="userSpaceOnUse">
<stop stop-color="white"/>
<stop offset="1" stop-color="#999999"/>
</linearGradient>
<linearGradient id="paint28_linear_1959_42336" x1="811.001" y1="81.1463" x2="811.001" y2="81.7757" gradientUnits="userSpaceOnUse">
<stop stop-color="white"/>
<stop offset="1" stop-color="#999999"/>
</linearGradient>
<linearGradient id="paint29_linear_1959_42336" x1="811.002" y1="93.9071" x2="811.002" y2="94.5364" gradientUnits="userSpaceOnUse">
<stop stop-color="white"/>
<stop offset="1" stop-color="#999999"/>
</linearGradient>
<linearGradient id="paint30_linear_1959_42336" x1="811.001" y1="107.784" x2="811.001" y2="108.413" gradientUnits="userSpaceOnUse">
<stop stop-color="white"/>
<stop offset="1" stop-color="#999999"/>
</linearGradient>
<linearGradient id="paint31_linear_1959_42336" x1="811.003" y1="122.916" x2="811.003" y2="123.545" gradientUnits="userSpaceOnUse">
<stop stop-color="white"/>
<stop offset="1" stop-color="#999999"/>
</linearGradient>
<linearGradient id="paint32_linear_1959_42336" x1="811.002" y1="139.49" x2="811.002" y2="140.12" gradientUnits="userSpaceOnUse">
<stop stop-color="white"/>
<stop offset="1" stop-color="#999999"/>
</linearGradient>
<linearGradient id="paint33_linear_1959_42336" x1="811.001" y1="157.722" x2="811.001" y2="158.352" gradientUnits="userSpaceOnUse">
<stop stop-color="white"/>
<stop offset="1" stop-color="#999999"/>
</linearGradient>
<linearGradient id="paint34_linear_1959_42336" x1="811.002" y1="177.872" x2="811.002" y2="178.501" gradientUnits="userSpaceOnUse">
<stop stop-color="white"/>
<stop offset="1" stop-color="#999999"/>
</linearGradient>
<linearGradient id="paint35_linear_1959_42336" x1="810.999" y1="200.261" x2="810.999" y2="200.89" gradientUnits="userSpaceOnUse">
<stop stop-color="white"/>
<stop offset="1" stop-color="#999999"/>
</linearGradient>
<linearGradient id="paint36_linear_1959_42336" x1="811" y1="225.284" x2="811" y2="225.913" gradientUnits="userSpaceOnUse">
<stop stop-color="white"/>
<stop offset="1" stop-color="#999999"/>
</linearGradient>
<linearGradient id="paint37_linear_1959_42336" x1="811.001" y1="253.432" x2="811.001" y2="254.061" gradientUnits="userSpaceOnUse">
<stop stop-color="white"/>
<stop offset="1" stop-color="#999999"/>
</linearGradient>
<clipPath id="clip0_1959_42336">
<rect width="2308" height="286" fill="white" transform="matrix(-1 0 0 -1 1965 286)"/>
</clipPath>
</defs>
</svg>
