<svg width="17" height="16" viewBox="0 0 17 16" fill="none" xmlns="http://www.w3.org/2000/svg">
<path d="M16 14.75V13.25C16 11.8521 15.0439 10.6775 13.75 10.3445M11.125 1.46807C12.2244 1.91311 13 2.99098 13 4.25C13 5.50902 12.2244 6.58689 11.125 7.03193M12.25 14.75C12.25 13.3522 12.25 12.6533 12.0216 12.1019C11.7172 11.3669 11.1331 10.7828 10.3981 10.4784C9.84674 10.25 9.14783 10.25 7.75 10.25H5.5C4.10218 10.25 3.40326 10.25 2.85195 10.4784C2.11687 10.7828 1.53284 11.3669 1.22836 12.1019C1 12.6533 1 13.3522 1 14.75M9.625 4.25C9.625 5.90685 8.28185 7.25 6.625 7.25C4.96815 7.25 3.625 5.90685 3.625 4.25C3.625 2.59315 4.96815 1.25 6.625 1.25C8.28185 1.25 9.625 2.59315 9.625 4.25Z" stroke="#475467" stroke-width="2" stroke-linecap="round" stroke-linejoin="round"/>
</svg>
